Coordinates
version=1
nRows=16
nColumns=30
inDegrees=yes

Units are S.I. units (second, meters, Newtons, ...)
Angles are in degrees.

endheader
time	floatyaw	floatroll	floatpitch	floatx	floaty	floatz	pro_sup_l	deviation_l	flexion_l	cmc_flexion_l	cmc_abduction_l	mp_flexion_l	ip_flexion_l	2mcp_flexion_l	2mcp_abduction_l	2pm_flexion_l	2md_flexion_l	3mcp_flexion_l	3mcp_abduction_l	3pm_flexion_l	3md_flexion_l	4mcp_flexion_l	4mcp_abduction_l	4pm_flexion_l	4md_flexion_l	5mcp_flexion_l	5mcp_abduction_l	5pm_flexion_l	5md_flexion_l
0.005000	-160.147433	-5.066637	-73.570646	-0.064975	-0.135674	-0.117794	80.293709	9.988742	1.439592	17.481577	20.850247	-31.330661	-53.598705	42.178568	16.631293	56.778926	62.940121	50.352368	6.504147	65.259703	52.788093	47.467790	-6.896183	75.443264	66.264932	50.487581	-14.623590	91.634541	71.206576
0.015000	-160.147433	-5.066637	-73.570646	-0.065337	-0.133716	-0.117695	78.512524	9.569667	1.033692	17.444055	20.915697	-31.629552	-54.145243	43.479788	16.851115	56.036984	64.604698	51.495138	6.489790	65.274724	53.106324	49.133119	-6.966597	75.164095	67.405252	52.634044	-14.809312	92.227496	71.879496
0.025000	-160.147433	-5.066637	-73.570646	-0.065622	-0.131238	-0.117681	76.958569	9.166196	0.512360	17.392026	20.789017	-32.002810	-54.715378	44.770503	17.038711	55.349247	66.171413	52.626499	6.470065	65.142432	53.241614	50.531769	-7.043553	74.714225	68.492114	54.452912	-15.016884	92.642927	72.570139
0.035000	-160.147433	-5.066637	-73.570646	-0.065913	-0.128520	-0.117717	75.630960	8.730146	0.014558	17.308301	20.464138	-32.392238	-55.277744	46.098137	17.213839	54.711108	67.739146	53.784764	6.442127	64.824340	53.215367	51.751332	-7.130753	74.095064	69.449659	56.003309	-15.222327	92.884692	73.265064
0.045000	-160.147433	-5.066637	-73.570646	-0.066261	-0.125959	-0.117746	74.473666	8.236990	-0.334416	17.181495	19.997577	-32.704272	-55.766738	47.431481	17.381139	54.144185	69.355482	54.943528	6.403759	64.358085	53.060409	52.860469	-7.224663	73.373512	70.215858	57.328929	-15.403777	92.999562	73.911429
0.055000	-160.147433	-5.066637	-73.570646	-0.066662	-0.123931	-0.117724	73.422032	7.701565	-0.475182	17.008856	19.477215	-32.855207	-56.110235	48.664267	17.534840	53.695426	70.994224	56.019944	6.356136	63.840714	52.821899	53.865889	-7.317235	72.665549	70.765359	58.433666	-15.546504	93.060676	74.449428
0.065000	-160.147433	-5.066637	-73.570646	-0.067053	-0.122660	-0.117642	72.446798	7.177532	-0.427560	16.797381	18.973007	-32.808168	-56.256996	49.647300	17.664970	53.414788	72.562647	56.900910	6.304138	63.383635	52.551127	54.701605	-7.399285	72.091000	71.114242	59.277214	-15.644515	93.134497	74.842809
0.075000	-160.147433	-5.066637	-73.570646	-0.067337	-0.122147	-0.117517	71.570643	6.738285	-0.262492	16.562201	18.504106	-32.583848	-56.192110	50.239382	17.762966	53.328105	73.938445	57.479524	6.254781	63.065364	52.296762	55.261048	-7.463512	71.726109	71.308401	59.797819	-15.699767	93.251340	75.091465
0.085000	-160.147433	-5.066637	-73.570646	-0.067429	-0.122202	-0.117377	70.849137	6.446535	-0.054959	16.322537	18.042496	-32.244863	-55.937298	50.358966	17.825341	53.421649	75.019527	57.690691	6.214737	62.906208	52.097824	55.455354	-7.506448	71.580382	71.403272	59.951255	-15.719736	93.398729	75.223392
0.095000	-160.147433	-5.066637	-73.570646	-0.067291	-0.122551	-0.117239	70.331415	6.327466	0.152086	16.096263	17.542988	-31.866864	-55.539272	50.014449	17.854830	53.645647	75.761899	57.532640	6.188003	62.873689	51.979554	55.263119	-7.528934	71.606975	71.444674	59.743387	-15.714252	93.540471	75.276817
0.105000	-160.147433	-5.066637	-73.570646	-0.066948	-0.122941	-0.117106	70.026655	6.359352	0.355941	15.894659	16.973619	-31.510954	-55.051751	49.299118	17.859116	53.931428	76.188555	57.064886	6.174676	62.909096	51.951360	54.743152	-7.535175	71.735051	71.458386	59.238141	-15.692800	93.645702	75.285932
0.115000	-160.147433	-5.066637	-73.570646	-0.066468	-0.123222	-0.116968	69.894066	6.485476	0.578458	15.719662	16.329146	-31.206853	-54.518268	48.355287	17.848070	54.210414	76.369986	56.384353	6.171315	62.956832	52.006751	54.007318	-7.530896	71.902922	71.450879	58.539780	-15.663190	93.708344	75.276159
0.125000	-160.147433	-5.066637	-73.570646	-0.065936	-0.123354	-0.116809	69.857708	6.639557	0.842393	15.565404	15.627050	-30.951043	-53.963319	47.327682	17.830782	54.427294	76.391802	55.592925	6.172631	62.982597	52.126168	53.174886	-7.521373	72.075845	71.417848	57.763362	-15.631568	93.748330	75.266416
0.135000	-160.147433	-5.066637	-73.570646	-0.065418	-0.123384	-0.116621	69.835747	6.771387	1.154461	15.423518	14.893827	-30.718849	-53.395391	46.327237	17.813538	54.547687	76.327418	54.772095	6.173651	62.976859	52.282716	52.335500	-7.510094	72.244757	71.353750	57.009085	-15.602986	93.798513	75.272530
0.145000	-160.147433	-5.066637	-73.570646	-0.064951	-0.123390	-0.116401	69.769648	6.861604	1.500903	15.289094	14.149959	-30.483450	-52.817966	45.415528	17.799188	54.562998	76.224717	53.972823	6.171318	62.948045	52.448736	51.535428	-7.498422	72.413393	71.256484	56.347155	-15.581602	93.886837	75.307248
0.155000	-160.147433	-5.066637	-73.570646	-0.064540	-0.123439	-0.116156	69.640652	6.921330	1.853390	15.163756	13.400679	-30.231625	-52.239676	44.607939	17.787762	54.491445	76.105030	53.218628	6.164906	62.912139	52.600692	50.784744	-7.486187	72.585289	71.126197	55.810941	-15.570025	94.022559	75.375783
